<svg width="31" height="29" viewBox="0 0 31 29" fill="none" xmlns="http://www.w3.org/2000/svg">
<path d="M28.1646 12.0444H27.1458V11.9951H15.7618V16.7451H22.9103C21.8674 19.5102 19.0651 21.4951 15.7618 21.4951C11.5707 21.4951 8.17256 18.3049 8.17256 14.3701C8.17256 10.4353 11.5707 7.24512 15.7618 7.24512C17.6965 7.24512 19.4566 7.9303 20.7967 9.04952L24.3744 5.69068C22.1153 3.71409 19.0935 2.49512 15.7618 2.49512C8.77654 2.49512 3.11304 7.81215 3.11304 14.3701C3.11304 20.9281 8.77654 26.2451 15.7618 26.2451C22.7472 26.2451 28.4107 20.9281 28.4107 14.3701C28.4107 13.5739 28.3234 12.7967 28.1646 12.0444Z" fill="#FFC107"/>
<path d="M4.57153 8.8429L8.7273 11.7042C9.85178 9.09049 12.5751 7.24512 15.7619 7.24512C17.6966 7.24512 19.4567 7.9303 20.7968 9.04952L24.3745 5.69068C22.1154 3.71409 19.0936 2.49512 15.7619 2.49512C10.9035 2.49512 6.69021 5.07021 4.57153 8.8429Z" fill="#FF3D00"/>
<path d="M15.7618 26.2453C19.029 26.2453 21.9977 25.0714 24.2422 23.1625L20.3274 20.0525C19.0148 20.9896 17.4109 21.4965 15.7618 21.4953C12.4719 21.4953 9.67838 19.5258 8.626 16.7773L4.50122 19.7609C6.5946 23.6067 10.8459 26.2453 15.7618 26.2453Z" fill="#4CAF50"/>
<path d="M28.1645 12.0444H27.1456V11.9951H15.7617V16.7451H22.9102C22.4113 18.0611 21.5127 19.2111 20.3254 20.0529L20.3273 20.0517L24.2421 23.1618C23.9651 23.3981 28.4105 20.3076 28.4105 14.3701C28.4105 13.5739 28.3233 12.7967 28.1645 12.0444Z" fill="#1976D2"/>
</svg>
