<svg width="349" height="152" viewBox="0 0 349 152" fill="none" xmlns="http://www.w3.org/2000/svg">
<path d="M298.145 70.5643C298.891 76.3067 295.686 82.3902 289.002 88.4994C282.331 94.597 272.282 100.634 259.581 106.266C234.187 117.528 198.299 127.123 157.942 132.37C117.585 137.616 80.4369 137.514 53.0071 133.119C39.2888 130.921 28.0305 127.654 20.0217 123.465C11.9978 119.267 7.34417 114.206 6.5977 108.463C5.85122 102.721 9.05604 96.6371 15.7402 90.5279C22.4117 84.4303 32.4606 78.3934 45.1611 72.7612C70.5557 61.4997 106.443 51.9039 146.8 46.6578C187.158 41.4116 224.306 41.5135 251.735 45.9082C265.454 48.1061 276.712 51.3733 284.721 55.5626C292.745 59.7598 297.398 64.8218 298.145 70.5643Z" stroke="#4A5AEF"/>
<path fill-rule="evenodd" clip-rule="evenodd" d="M290.287 10.6629L290.29 10.662C296.039 31.0473 317.462 43.0287 338.556 37.6558L338.557 37.6588L300.27 47.9179L290.287 10.6629ZM261.982 58.177L261.982 58.1739C282.936 52.2802 295.498 31.1926 290.284 10.6638L290.287 10.6629L300.27 47.918L261.982 58.177ZM338.558 37.6621L338.557 37.659L300.27 47.918L300.27 47.9181L261.983 58.1771L261.983 58.1801C283.077 52.8071 304.5 64.7885 310.249 85.1739L310.252 85.1731L310.252 85.173L310.255 85.1721C305.041 64.6434 317.604 43.5557 338.558 37.6621Z" fill="#373737"/>
</svg>
