<svg width="115" height="23" viewBox="0 0 115 23" fill="none" xmlns="http://www.w3.org/2000/svg">
<path d="M6.784 22L0.8 0.655998H6.464L10.208 17.232H9.344L14.144 0.655998H18.144L23.04 17.456H22.08L25.856 0.655998H31.52L25.536 22H20.416L15.712 6.64H16.64L11.904 22H6.784ZM34.5845 22V0.655998H49.2085V4.656H39.7685V9.296H47.9605V13.328H39.7685V18H49.2085V22H34.5845ZM62.9933 22.416C59.5799 22.416 56.9666 21.52 55.1533 19.728C53.3613 17.9147 52.4653 15.12 52.4653 11.344C52.4653 7.67467 53.3293 4.90133 55.0573 3.024C56.7853 1.12533 59.4306 0.175999 62.9933 0.175999C64.1239 0.175999 65.2653 0.314665 66.4173 0.591999C67.5693 0.869333 68.6893 1.25333 69.7773 1.744V6.256C68.6679 5.53067 67.6013 5.008 66.5773 4.688C65.5533 4.368 64.5933 4.208 63.6973 4.208C62.4386 4.208 61.3719 4.432 60.4973 4.88C59.6439 5.328 58.9826 6.07467 58.5133 7.12C58.0653 8.16533 57.8413 9.57333 57.8413 11.344C57.8413 13.1147 58.0653 14.512 58.5133 15.536C58.9826 16.56 59.6653 17.296 60.5613 17.744C61.4786 18.1707 62.5986 18.384 63.9213 18.384C64.7106 18.384 65.6066 18.2347 66.6093 17.936C67.6119 17.6373 68.6679 17.1253 69.7773 16.4V20.912C69.1799 21.2107 68.4973 21.4773 67.7292 21.712C66.9826 21.9253 66.1933 22.096 65.3613 22.224C64.5506 22.352 63.7613 22.416 62.9933 22.416ZM71.8535 22L79.9175 0.655998H85.5815L93.1335 22H87.8215L81.0055 1.872L83.5335 1.648L76.7495 22H71.8535ZM76.3975 17.392L77.4535 13.584H87.1495L87.6295 17.392H76.3975ZM95.8345 22V0.655998H100.251L111.227 15.44L109.691 18.64V0.655998H114.459V22H110.555L99.3865 7.408L100.603 5.072V22H95.8345Z" fill="#2D2B28"/>
</svg>
